#!OML:ASF F:\VICON\USERDATA\INSTALL\rory3\rory3.ASF
:FULLY-SPECIFIED
:DEGREES
111
root -0.0173 17.7304 -53.7576 4.66929 0.1987 2.93969
lowerback 17.0681 -2.63841 -5.68573
upperback 1.13331 -4.63307 -0.765503
thorax -7.95492 -2.04413 3.46812
lowerneck -2.94454 2.56366 -0.873861
upperneck -11.8198 3.36973 -0.675248
head -3.2834 1.7276 -0.134866
rclavicle 3.27995e-015 3.97569e-015
rhumerus -59.0038 2.47158 -79.0174
rradius 79.7714
rwrist -3.67503
rhand -39.7412 32.7916
rfingers 7.12502
rthumb -12.7183 3.19889
lclavicle 3.27995e-015 3.97569e-015
lhumerus -11.2272 -16.7887 85.4574
lradius 115.35
lwrist 27.3696
lhand -37.3867 4.55362
lfingers 7.12502
lthumb -10.4477 34.274
rfemur -47.0188 -0.690137 18.2096
rtibia 91.8682
rfoot 2.60822 -5.0622
rtoes -1.14213
lfemur 8.33765 0.386683 -28.0193
ltibia 26.7956
lfoot -1.23432 -2.39612
ltoes -28.6185
112
root -0.0173 17.8184 -53.5947 4.78191 0.1987 2.85403
lowerback 16.4634 -2.79215 -5.49971
upperback 1.28418 -4.74087 -0.605176
thorax -7.446 -2.12498 3.51131
lowerneck -4.58279 2.77316 -0.996879
upperneck -10.806 3.65954 -0.822348
head -2.64045 1.87529 -0.127306
rclavicle 5.07895e-014 3.97569e-016
rhumerus -59.2303 2.49655 -78.7485
rradius 79.9372
rwrist -3.83081
rhand -40.5574 31.3271
rfingers 7.12502
rthumb -13.5051 1.78501
lclavicle 5.07895e-014 3.97569e-016
lhumerus -10.8361 -16.6185 85.4098
lradius 116.059
lwrist 28.2201
lhand -37.2522 4.62024
lfingers 7.12502
lthumb -10.3179 34.3471
rfemur -47.4636 0.189646 18.2676
rtibia 87.6292
rfoot 1.31121 -4.36255
rtoes -2.69082
lfemur 10.9807 0.0689319 -27.9765
ltibia 23.8921
lfoot 3.83978 -2.39107
ltoes -26.3322
113
root -0.0173 17.8999 -53.4318 4.75483 0.1987 2.77439
lowerback 15.9228 -3.05163 -5.45441
upperback 1.84316 -4.98352 -0.184073
thorax -6.48525 -2.28927 3.91899
lowerneck -7.95885 3.08665 -1.93917
upperneck -9.40506 4.18361 -0.74732
head -1.62905 2.15288 0.12312
rclavicle 4.33351e-014 -6.75868e-015
rhumerus -58.3227 3.09819 -78.2334
rradius 79.9581
rwrist -3.99809
rhand -41.9622 29.0192
rfingers 7.12502
rthumb -14.8588 -0.427968
lclavicle 4.33351e-014 -6.75868e-015
lhumerus -9.75866 -15.7871 85.4006
lradius 116.613
lwrist 28.5596
lhand -37.611 5.8255
lfingers 7.12502
lthumb -10.6641 35.5349
rfemur -47.471 1.00981 18.2562
rtibia 83.1421
rfoot 0.432903 -3.68198
rtoes -4.01996
lfemur 13.721 -0.456272 -28.0907
ltibia 20.935
lfoot 9.20476 -1.76529
ltoes -23.6788
114
root -0.0172 17.9713 -53.2689 4.81144 0.1987 2.67613
lowerback 15.9736 -3.07268 -5.14763
upperback 0.357684 -5.02971 -0.224327
thorax -8.14763 -2.22795 3.78857
lowerneck -3.02191 3.18818 -1.01694
upperneck -10.2525 4.16024 -1.35209
head -2.72137 2.13934 -0.319185
rclavicle -7.8023e-015 -2.78299e-015
rhumerus -62.1376 3.26221 -78.1682
rradius 80.5788
rwrist -4.3468
rhand -42.1114 28.788
rfingers 7.12502
rthumb -15.0024 -0.648554
lclavicle -7.8023e-015 -2.78299e-015
lhumerus -13.3274 -16.4783 86.4335
lradius 117.452
lwrist 28.7164
lhand -37.7482 6.84582
lfingers 7.12502
lthumb -10.7964 36.5483
rfemur -47.391 1.58565 18.2788
rtibia 78.4917
rfoot -0.586967 -2.84278
rtoes -6.49639
lfemur 16.342 -1.01458 -28.1953
ltibia 17.9099
lfoot 14.8088 -0.263886
ltoes -20.2459
115
root -0.0172 18.0309 -53.1059 4.99068 0.1987 2.33118
lowerback 15.7634 -2.96651 -4.7469
upperback 0.180869 -4.80168 -0.0991091
thorax -8.26515 -2.12468 3.64359
lowerneck -3.76051 3.17629 -0.556085
upperneck -9.54307 4.12675 -1.72963
head -2.33367 2.10969 -0.4891
rclavicle -4.07012e-014 1.98785e-016
rhumerus -62.8605 2.9494 -78.0108
rradius 80.8429
rwrist -4.76516
rhand -40.4395 31.4386
rfingers 7.12502
rthumb -13.3914 1.88896
lclavicle -4.07012e-014 1.98785e-016
lhumerus -13.8539 -16.8976 86.6945
lradius 117.819
lwrist 28.819
lhand -37.3497 6.03363
lfingers 7.12502
lthumb -10.412 35.7558
rfemur -47.3884 2.48283 18.566
rtibia 73.6286
rfoot -1.19869 -2.24633
rtoes -7.70176
lfemur 18.8072 -1.26414 -28.0623
ltibia 14.677
lfoot 20.3391 1.75954
ltoes -18.6794
116
root -0.0172 18.0858 -52.943 5.23594 0.1987 2.24066
lowerback 15.248 -2.84084 -4.60766
upperback 0.0748317 -4.58275 -0.0377593
thorax -8.11604 -2.029 3.55382
lowerneck -4.32956 3.23414 -0.192699
upperneck -9.00913 4.18613 -2.05264
head -2.0435 2.12893 -0.63047
rclavicle -5.86415e-015 -7.55382e-015
rhumerus -63.3447 2.68012 -77.8676
rradius 81.169
rwrist -4.81984
rhand -39.2407 32.6698
rfingers 7.12502
rthumb -12.2358 3.04773
lclavicle -5.86415e-015 -7.55382e-015
lhumerus -14.1759 -17.1715 86.76
lradius 118.144
lwrist 28.4142
lhand -37.1239 4.17889
lfingers 7.12502
lthumb -10.1942 33.9119
rfemur -47.3618 3.33735 18.555
rtibia 68.5444
rfoot -1.57282 -1.82459
rtoes -7.85017
lfemur 21.2967 -1.37896 -28.2893
ltibia 11.2293
lfoot 25.5044 3.51153
ltoes -16.892
